<svg xmlns="http://www.w3.org/2000/svg" x="0px" y="0px"
width="48" height="48"
viewBox="0 0 172 172"
style=" fill:#000000;"><g fill="none" fill-rule="nonzero" stroke="none" stroke-width="1" stroke-linecap="butt" stroke-linejoin="miter" stroke-miterlimit="10" stroke-dasharray="" stroke-dashoffset="0" font-family="none" font-weight="none" font-size="none" text-anchor="none" style="mix-blend-mode: normal"><path d="M0,172v-172h172v172z" fill="none"></path><g fill="#1abc9c"><path d="M37.625,21.5c-12.79944,0 -23.29167,10.49222 -23.29167,23.29167v57.33333v21.62598c0,6.99337 8.56384,11.35898 14.22135,7.25065c0.00233,0 0.00467,0 0.007,0l15.48112,-11.2609c2.95246,9.4801 11.83691,16.42594 22.24886,16.42594h44.83366l32.31299,23.50163c0.00233,0 0.00467,0 0.007,0c5.65735,4.10833 14.22135,-0.25728 14.22135,-7.25065v-21.62598v-57.33333c0,-12.79944 -10.49222,-23.29167 -23.29167,-23.29167h-5.375v-5.375c0,-12.79944 -10.49222,-23.29167 -23.29167,-23.29167zM37.625,32.25h68.08333c6.98772,0 12.54167,5.55394 12.54167,12.54167v39.41667c0,6.98772 -5.55394,12.54167 -12.54167,12.54167h-46.58333c-1.13672,-0.00016 -2.24424,0.36003 -3.16341,1.02881l-30.87826,22.45882v-18.11263v-57.33333c0,-6.98772 5.55394,-12.54167 12.54167,-12.54167zM129,60.91667h5.375c6.98772,0 12.54167,5.55394 12.54167,12.54167v57.33333v18.11263l-30.87826,-22.45882c-0.91917,-0.66878 -2.02669,-1.02897 -3.16341,-1.02881h-46.58333c-6.98772,0 -12.54167,-5.55394 -12.54167,-12.54167v-0.19597l7.12467,-5.17903h44.83366c12.79944,0 23.29167,-10.49222 23.29167,-23.29167z"></path></g></g></svg>